<?xml version="1.0" encoding="UTF-8" standalone="no"?>
<!-- Created with Inkscape (http://www.inkscape.org/) -->

<svg
   width="65.933578mm"
   height="65.933578mm"
   viewBox="0 0 65.933578 65.933578"
   version="1.1"
   id="svg863"
   inkscape:version="1.1.2 (0a00cf5339, 2022-02-04)"
   sodipodi:docname="white.svg"
   inkscape:export-filename="/home/ulisses/Yolisses/portfolio/public/ulisses/logo512.png"
   inkscape:export-xdpi="192.00002"
   inkscape:export-ydpi="192.00002"
   xmlns:inkscape="http://www.inkscape.org/namespaces/inkscape"
   xmlns:sodipodi="http://sodipodi.sourceforge.net/DTD/sodipodi-0.dtd"
   xmlns="http://www.w3.org/2000/svg"
   xmlns:svg="http://www.w3.org/2000/svg">
  <sodipodi:namedview
     id="namedview865"
     pagecolor="#ffffff"
     bordercolor="#666666"
     borderopacity="1.0"
     inkscape:pageshadow="2"
     inkscape:pageopacity="0.0"
     inkscape:pagecheckerboard="0"
     inkscape:document-units="mm"
     showgrid="false"
     fit-margin-top="0"
     fit-margin-left="0"
     fit-margin-right="0"
     fit-margin-bottom="0"
     inkscape:zoom="0.73121154"
     inkscape:cx="125.13479"
     inkscape:cy="151.80286"
     inkscape:window-width="1366"
     inkscape:window-height="731"
     inkscape:window-x="0"
     inkscape:window-y="0"
     inkscape:window-maximized="1"
     inkscape:current-layer="g1070" />
  <defs
     id="defs860">
    <inkscape:path-effect
       effect="fillet_chamfer"
       id="path-effect1063"
       is_visible="true"
       lpeversion="1"
       satellites_param="F,1,0,1,0,0.125,0,1 @ F,1,0,1,0,0.125,0,1 @ F,1,0,1,0,0.125,0,1 @ F,1,0,1,0,0.125,0,1 @ F,1,0,1,0,0.125,0,1 @ F,1,0,1,0,0.125,0,1"
       unit="px"
       method="auto"
       mode="F"
       radius="12.5"
       chamfer_steps="1"
       flexible="true"
       use_knot_distance="true"
       apply_no_radius="true"
       apply_with_radius="true"
       only_selected="false"
       hide_knots="false" />
    <inkscape:path-effect
       effect="fillet_chamfer"
       id="path-effect943"
       is_visible="true"
       lpeversion="1"
       satellites_param="F,1,0,1,0,0,0,1 @ F,1,0,1,0,0,0,1 @ F,1,0,1,0,0,0,1 @ F,1,0,1,0,0,0,1 @ F,1,0,1,0,0,0,1 @ F,1,0,1,0,0,0,1"
       unit="px"
       method="auto"
       mode="F"
       radius="12.5"
       chamfer_steps="1"
       flexible="true"
       use_knot_distance="true"
       apply_no_radius="true"
       apply_with_radius="true"
       only_selected="false"
       hide_knots="false" />
    <inkscape:path-effect
       effect="fillet_chamfer"
       id="path-effect941"
       is_visible="true"
       lpeversion="1"
       satellites_param="F,1,0,1,0,1,0,1 @ F,1,0,1,0,1,0,1 @ F,1,0,1,0,1,0,1 @ F,1,0,1,0,1,0,1 @ F,1,0,1,0,1,0,1 @ F,1,0,1,0,1,0,1"
       unit="px"
       method="auto"
       mode="F"
       radius="100"
       chamfer_steps="1"
       flexible="true"
       use_knot_distance="true"
       apply_no_radius="true"
       apply_with_radius="true"
       only_selected="false"
       hide_knots="false" />
    <inkscape:path-effect
       effect="fillet_chamfer"
       id="path-effect939"
       is_visible="true"
       lpeversion="1"
       satellites_param="F,1,0,1,0,0.015599771,0,1 @ F,1,0,1,0,0.015599771,0,1 @ F,1,0,1,0,0.015599771,0,1 @ F,1,0,1,0,0.015599771,0,1 @ F,1,0,1,0,0.015599771,0,1 @ F,1,0,1,0,0.015599771,0,1"
       unit="px"
       method="auto"
       mode="F"
       radius="12.5"
       chamfer_steps="1"
       flexible="true"
       use_knot_distance="true"
       apply_no_radius="true"
       apply_with_radius="true"
       only_selected="false"
       hide_knots="false" />
  </defs>
  <g
     inkscape:label="Layer 1"
     inkscape:groupmode="layer"
     id="layer1"
     transform="translate(-20.182402,-61.126749)">
    <g
       id="g22121"
       transform="matrix(1.0352738,0,0,1.0352738,-1.7723591,-3.3092604)">
      <g
         id="g1070"
         transform="rotate(-15,52.665098,83.298829)">
        <path
           id="path9715"
           style="fill:#ffffff;fill-opacity:1;stroke:#e11c31;stroke-width:2.12312;stroke-miterlimit:3.2;stroke-opacity:0"
           d="M 98.050781 1.0820312 A 28.425025 28.425025 0 0 0 79.013672 9.3867188 L 9.3867188 79.013672 A 28.425023 28.425023 0 0 0 2.03125 106.4707 L 27.515625 201.58203 A 28.425028 28.425028 0 0 0 47.615234 221.68164 L 142.72656 247.16797 A 28.425018 28.425018 0 0 0 170.18359 239.81055 L 239.81055 170.18359 A 28.425029 28.425029 0 0 0 247.16797 142.72656 L 221.68164 47.615234 A 28.425024 28.425024 0 0 0 201.58203 27.515625 L 106.4707 2.03125 A 28.425025 28.425025 0 0 0 98.050781 1.0820312 z M 181.34961 77.876953 L 178.18555 141.75586 L 169.47266 144.0918 L 172.77344 80.173828 L 181.34961 77.876953 z M 193.77539 91.035156 L 222.84961 94.990234 L 224.87305 102.54492 L 201.69141 120.57617 L 197.33789 113.86328 L 214.47656 101.31836 L 193.36328 99.023438 L 193.77539 91.035156 z M 131.85156 92.330078 C 132.91193 92.237457 133.93002 92.442306 134.9043 92.947266 C 136.20333 93.620545 137.07746 94.79758 137.52734 96.476562 C 137.96507 98.110167 137.79031 99.542798 137.00195 100.77539 C 136.2136 102.00798 135.09272 102.8199 133.64062 103.20898 C 132.18853 103.59807 130.8127 103.45453 129.51367 102.78125 C 128.26002 102.09581 127.41429 100.93634 126.97656 99.302734 C 126.52668 97.623752 126.67304 96.175512 127.41602 94.955078 C 128.20437 93.722486 129.32525 92.910572 130.77734 92.521484 C 131.14037 92.424213 131.49811 92.360952 131.85156 92.330078 z M 102.32031 99.855469 L 111.62109 134.56836 C 112.20472 136.7465 113.03268 138.10608 114.10156 138.64648 C 115.17045 139.18689 116.36177 139.28034 117.67773 138.92773 C 119.35672 138.47785 120.70199 137.87494 121.71484 137.11719 C 122.7277 136.35943 123.39806 135.86426 123.72461 135.63086 L 126.61914 142.07617 C 126.50732 142.2034 126.23328 142.44796 125.79492 142.80859 C 125.40194 143.15707 124.85472 143.57181 124.15625 144.05078 C 123.44562 144.48437 122.5487 144.94225 121.46289 145.42773 C 120.42246 145.90106 119.19773 146.3262 117.79102 146.70312 C 113.93389 147.73664 110.81714 147.3572 108.43945 145.5625 C 106.04961 143.72243 104.26536 140.60088 103.08594 136.19922 L 95.808594 109.04102 L 86.958984 111.41211 L 85.099609 104.46875 L 102.32031 99.855469 z M 140.33008 105.57422 L 145.63672 125.38086 C 146.1474 127.28673 146.87063 128.62593 147.80664 129.39648 C 148.77587 130.1095 150.07733 130.24632 151.71094 129.80859 C 152.48236 129.60189 153.38925 129.26239 154.42969 128.78906 C 155.45796 128.27036 156.5667 127.51178 157.75781 126.51172 L 160.65234 132.95703 C 159.14684 134.23587 157.65935 135.21862 156.18945 135.9043 C 154.77709 136.62319 153.4366 137.15369 152.16602 137.49414 C 149.98788 138.07777 148.06418 138.25162 146.39648 138.01758 C 144.77417 137.77137 143.35064 137.18079 142.12695 136.24414 C 140.93648 135.24996 139.92858 133.93959 139.10352 132.3125 C 138.27845 130.68541 137.56845 128.75867 136.97266 126.53516 L 133.81836 114.75977 L 124.96875 117.13086 L 123.10938 110.18945 L 140.33008 105.57422 z M 82.404297 121.0957 L 90.685547 151.99805 C 89.252129 152.81985 87.477368 153.73214 85.363281 154.73633 C 83.294572 155.72836 80.9674 156.57061 78.380859 157.26367 C 75.748941 157.96889 73.496573 158.18437 71.623047 157.9082 C 69.749521 157.63204 68.138034 156.96838 66.787109 155.91992 C 65.469404 154.81392 64.384539 153.40339 63.535156 151.68555 C 62.685774 149.9677 61.97035 148.01994 61.386719 145.8418 L 56.607422 128.00781 L 64.980469 125.76367 L 69.466797 142.50781 C 70.25713 145.45738 71.186104 147.56818 72.255859 148.83789 C 73.358834 150.05006 74.932603 150.38309 76.974609 149.83594 C 78.245191 149.49549 79.485526 149.04 80.695312 148.47266 L 73.964844 123.35742 L 82.404297 121.0957 z M 47.685547 130.10547 L 51.970703 136.83789 L 34.898438 149.36328 L 55.945312 151.67578 L 55.601562 159.64648 L 26.509766 155.62305 L 24.484375 148.06836 L 47.685547 130.10547 z "
           transform="matrix(0.24686018,0.06614599,-0.06614599,0.24686018,27.728922,54.816065)" />
      </g>
    </g>
  </g>
</svg>
