<?xml version="1.0" standalone="no"?>
<!DOCTYPE svg PUBLIC "-//W3C//DTD SVG 20010904//EN"
 "http://www.w3.org/TR/2001/REC-SVG-20010904/DTD/svg10.dtd">
<svg version="1.0" xmlns="http://www.w3.org/2000/svg"
 width="700.000000pt" height="700.000000pt" viewBox="0 0 700.000000 700.000000"
 preserveAspectRatio="xMidYMid meet">
<metadata>
Created by potrace 1.14, written by Peter Selinger 2001-2017
</metadata>
<g transform="translate(0.000000,700.000000) scale(0.100000,-0.100000)"
fill="#000000" stroke="none">
<path d="M2614 6955 c-33 -8 -91 -26 -128 -41 -158 -63 -156 -61 -1248 -1152
-1091 -1091 -1089 -1090 -1152 -1247 -59 -147 -73 -330 -37 -480 63 -261 737
-2751 760 -2806 77 -183 238 -344 420 -420 36 -15 489 -141 1006 -279 517
-139 1140 -306 1385 -372 405 -109 455 -120 554 -125 128 -7 219 7 328 49 168
64 155 52 1260 1156 1090 1091 1089 1090 1152 1247 59 147 73 330 37 480 -63
262 -737 2751 -760 2806 -77 182 -237 343 -420 420 -55 23 -2544 697 -2806
760 -94 22 -257 24 -351 4z m2432 -3059 c-32 -644 -47 -870 -56 -876 -16 -10
-220 -63 -224 -58 -4 6 89 1776 94 1781 3 3 55 18 115 34 109 30 110 30 112 9
2 -12 -17 -412 -41 -890z m764 494 c162 -22 329 -45 371 -51 l77 -11 28 -104
c15 -57 25 -106 23 -108 -26 -22 -639 -496 -642 -496 -7 0 -120 181 -116 184
2 2 108 79 234 171 263 192 240 174 234 179 -3 3 -556 66 -579 66 -6 0 -1 167
5 198 5 20 10 22 38 17 18 -3 165 -23 327 -45z m-2013 -10 c63 -38 87 -125 54
-193 -53 -109 -223 -117 -266 -13 -38 90 -23 159 44 203 44 30 122 31 168 3z
m-790 -690 c72 -271 137 -506 144 -522 40 -96 149 -102 277 -15 24 16 45 27
47 25 8 -7 75 -159 75 -168 0 -19 -110 -82 -192 -111 -155 -54 -284 -32 -358
61 -57 71 -89 165 -195 565 -59 220 -110 403 -113 407 -4 4 -54 -6 -112 -23
-58 -16 -112 -29 -121 -29 -11 0 -22 22 -37 79 -12 43 -22 85 -22 93 0 9 67
32 228 75 125 34 231 60 237 59 5 -1 69 -224 142 -496z m947 288 c8 -29 42
-156 76 -283 80 -301 95 -333 162 -349 37 -8 144 27 196 65 l42 31 40 -88 41
-88 -28 -22 c-49 -40 -168 -94 -243 -110 -86 -18 -145 -11 -212 22 -85 43
-135 136 -198 369 -75 275 -68 257 -93 249 -12 -4 -68 -19 -123 -34 l-102 -28
-22 87 c-12 47 -23 90 -24 95 -1 7 426 131 466 135 4 1 13 -23 22 -51z m-1525
-815 c109 -410 113 -427 95 -440 -35 -26 -181 -92 -260 -118 -156 -51 -272
-51 -360 0 -92 54 -139 155 -233 507 -39 146 -71 272 -71 280 0 8 39 23 110
42 61 16 112 27 114 25 1 -2 33 -119 70 -259 38 -140 81 -283 96 -317 30 -67
73 -103 121 -103 27 0 138 35 151 48 3 4 -33 156 -82 337 -49 182 -91 339 -92
349 -3 17 11 24 97 47 55 15 107 28 115 28 11 1 42 -101 129 -426z m-1029 82
c28 -44 50 -82 50 -86 0 -4 -106 -85 -235 -180 -130 -94 -234 -173 -233 -175
4 -3 550 -64 575 -64 11 0 12 -22 7 -107 -4 -60 -8 -109 -9 -111 -4 -4 -798
108 -804 114 -3 3 -18 49 -33 102 -21 75 -24 100 -15 109 44 44 634 490 640
484 4 -4 30 -43 57 -86z"/>
</g>
</svg>
