<?xml version="1.0" encoding="UTF-8" standalone="no"?>
<svg
   viewBox="-5.724 -43.601 714.54102 714.54102"
   version="1.1"
   id="svg38"
   sodipodi:docname="docker.svg"
   inkscape:version="1.1.2 (0a00cf5339, 2022-02-04)"
   width="714.54102"
   height="714.54102"
   xmlns:inkscape="http://www.inkscape.org/namespaces/inkscape"
   xmlns:sodipodi="http://sodipodi.sourceforge.net/DTD/sodipodi-0.dtd"
   xmlns="http://www.w3.org/2000/svg"
   xmlns:svg="http://www.w3.org/2000/svg">
  <defs
     id="defs42" />
  <sodipodi:namedview
     id="namedview40"
     pagecolor="#ffffff"
     bordercolor="#666666"
     borderopacity="1.0"
     inkscape:pageshadow="2"
     inkscape:pageopacity="0.0"
     inkscape:pagecheckerboard="0"
     showgrid="false"
     inkscape:zoom="0.27323468"
     inkscape:cx="133.5848"
     inkscape:cy="142.73444"
     inkscape:window-width="1366"
     inkscape:window-height="731"
     inkscape:window-x="0"
     inkscape:window-y="0"
     inkscape:window-maximized="1"
     inkscape:current-layer="svg38"
     fit-margin-top="0"
     fit-margin-left="0"
     fit-margin-right="0"
     fit-margin-bottom="0" />
  <g
     id="g956"
     style="fill:#2496ed;fill-opacity:1"
     transform="translate(-5.7239838,57.299849)">
    <path
       d="m 707.494,193.557 c -1.938,-1.539 -20.029,-15.199 -58.181,-15.199 -10.074,0.044 -20.127,0.908 -30.061,2.584 -7.384,-50.612 -49.228,-75.288 -51.104,-76.395 l -10.245,-5.908 -6.738,9.723 c -8.438,13.061 -14.598,27.459 -18.214,42.582 -6.831,28.891 -2.677,56.027 11.999,79.226 -17.722,9.876 -46.151,12.307 -51.904,12.522 H 22.367 c -12.294,0.017 -22.27,9.952 -22.337,22.245 -0.549,41.234 6.437,82.222 20.614,120.946 16.214,42.521 40.336,73.842 71.719,93.01 35.167,21.537 92.302,33.844 157.067,33.844 29.258,0.092 58.461,-2.556 87.226,-7.907 39.986,-7.342 78.463,-21.318 113.839,-41.352 29.149,-16.88 55.383,-38.354 77.688,-63.596 37.29,-42.213 59.505,-89.226 76.026,-131.007 h 6.584 c 40.828,0 65.935,-16.338 79.78,-30.029 9.201,-8.732 16.384,-19.369 21.045,-31.167 l 2.923,-8.553 z"
       id="path18"
       style="fill:#2496ed;fill-opacity:1" />
    <path
       d="m 65.995,228.909 h 63.073 c 3.042,0 5.507,-2.466 5.507,-5.507 V 167.22 c 0.017,-3.042 -2.435,-5.521 -5.476,-5.538 -0.01,0 -0.021,0 -0.031,0 H 65.995 c -3.042,0 -5.507,2.466 -5.507,5.507 v 0.031 56.181 c 0,3.042 2.465,5.508 5.507,5.508 z"
       id="path20"
       style="fill:#2496ed;fill-opacity:1" />
    <path
       d="m 152.913,228.909 h 63.073 c 3.042,0 5.507,-2.466 5.507,-5.507 V 167.22 c 0.017,-3.042 -2.435,-5.521 -5.477,-5.538 -0.01,0 -0.021,0 -0.031,0 h -63.073 c -3.059,0 -5.538,2.479 -5.538,5.538 v 56.181 c 0.018,3.047 2.492,5.508 5.539,5.508"
       id="path22"
       style="fill:#2496ed;fill-opacity:1" />
    <path
       d="m 241.153,228.909 h 63.073 c 3.042,0 5.507,-2.466 5.507,-5.507 V 167.22 c 0.017,-3.042 -2.435,-5.521 -5.477,-5.538 -0.01,0 -0.021,0 -0.031,0 h -63.073 c -3.042,0 -5.507,2.466 -5.507,5.507 v 0.031 56.181 c 10e-4,3.042 2.467,5.508 5.508,5.508 z"
       id="path24"
       style="fill:#2496ed;fill-opacity:1" />
    <path
       d="m 328.348,228.909 h 63.073 c 3.047,0 5.521,-2.46 5.538,-5.507 V 167.22 c 0,-3.059 -2.479,-5.538 -5.538,-5.538 h -63.073 c -3.042,0 -5.507,2.466 -5.507,5.507 v 0.031 56.181 c 0,3.042 2.466,5.508 5.507,5.508 z"
       id="path26"
       style="fill:#2496ed;fill-opacity:1" />
    <path
       d="m 152.913,148.083 h 63.073 c 3.046,-0.017 5.507,-2.492 5.507,-5.538 V 86.364 c 0,-3.042 -2.466,-5.507 -5.507,-5.507 h -63.073 c -3.046,0 -5.521,2.46 -5.538,5.507 v 56.181 c 0.017,3.052 2.486,5.521 5.538,5.538"
       id="path28"
       style="fill:#2496ed;fill-opacity:1" />
    <path
       d="m 241.153,148.083 h 63.073 c 3.046,-0.017 5.507,-2.492 5.507,-5.538 V 86.364 c 0,-3.042 -2.466,-5.507 -5.507,-5.507 h -63.073 c -3.042,0 -5.507,2.466 -5.507,5.507 v 56.181 c 0,3.046 2.461,5.521 5.507,5.538"
       id="path30"
       style="fill:#2496ed;fill-opacity:1" />
    <path
       d="m 328.348,148.083 h 63.073 c 3.052,-0.017 5.521,-2.486 5.538,-5.538 V 86.364 c -0.017,-3.047 -2.491,-5.507 -5.538,-5.507 h -63.073 c -3.042,0 -5.507,2.466 -5.507,5.507 v 56.181 c 0,3.046 2.461,5.521 5.507,5.538"
       id="path32"
       style="fill:#2496ed;fill-opacity:1" />
    <path
       d="m 328.348,67.227 h 63.073 c 3.047,0 5.521,-2.461 5.538,-5.507 V 5.507 C 396.942,2.46 394.468,0 391.421,0 h -63.073 c -3.042,0 -5.507,2.465 -5.507,5.507 v 56.212 c 0,3.042 2.466,5.508 5.507,5.508"
       id="path34"
       style="fill:#2496ed;fill-opacity:1" />
    <path
       d="m 416.312,228.909 h 63.073 c 3.047,0 5.521,-2.46 5.538,-5.507 V 167.22 c 0,-3.059 -2.479,-5.538 -5.538,-5.538 h -63.073 c -3.041,0 -5.507,2.466 -5.507,5.507 v 0.031 56.181 c 0,3.042 2.466,5.508 5.507,5.508"
       id="path36"
       style="fill:#2496ed;fill-opacity:1" />
  </g>
</svg>
