<?xml version="1.0" encoding="UTF-8" standalone="no"?>
<svg
   viewBox="0 0 51.033001 51.033001"
   class="text-slate-900 dark:text-white w-auto h-5"
   version="1.1"
   id="svg6"
   sodipodi:docname="tailwind.svg"
   width="51.033001"
   height="51.033001"
   inkscape:version="1.1.2 (0a00cf5339, 2022-02-04)"
   xmlns:inkscape="http://www.inkscape.org/namespaces/inkscape"
   xmlns:sodipodi="http://sodipodi.sourceforge.net/DTD/sodipodi-0.dtd"
   xmlns="http://www.w3.org/2000/svg"
   xmlns:svg="http://www.w3.org/2000/svg">
  <defs
     id="defs10" />
  <sodipodi:namedview
     id="namedview8"
     pagecolor="#ffffff"
     bordercolor="#666666"
     borderopacity="1.0"
     inkscape:pageshadow="2"
     inkscape:pageopacity="0.0"
     inkscape:pagecheckerboard="0"
     showgrid="false"
     fit-margin-top="0"
     fit-margin-left="0"
     fit-margin-right="0"
     fit-margin-bottom="0"
     inkscape:zoom="1.5140493"
     inkscape:cx="-21.465616"
     inkscape:cy="28.400661"
     inkscape:window-width="1366"
     inkscape:window-height="731"
     inkscape:window-x="0"
     inkscape:window-y="0"
     inkscape:window-maximized="1"
     inkscape:current-layer="svg6" />
  <path
     fill-rule="evenodd"
     clip-rule="evenodd"
     d="m 25.517,10.2985 c -6.805,0 -11.057,3.382 -12.759,10.146 2.552,-3.382 5.529,-4.65 8.931,-3.805 1.941,0.482 3.329,1.882 4.864,3.432 2.502,2.524 5.398,5.445 11.722,5.445 6.804,0 11.057,-3.382 12.758,-10.145 -2.551,3.382 -5.528,4.65 -8.93,3.804 -1.942,-0.482 -3.33,-1.882 -4.865,-3.431 -2.502,-2.526 -5.397,-5.446 -11.721,-5.446 z m -12.759,15.218 c -6.804,0 -11.057,3.382 -12.758,10.146 2.552,-3.382 5.529,-4.65 8.93,-3.805 1.942,0.482 3.33,1.882 4.865,3.432 2.502,2.524 5.397,5.445 11.722,5.445 6.804,0 11.057,-3.381 12.758,-10.145 -2.552,3.382 -5.529,4.65 -8.931,3.805 -1.941,-0.483 -3.329,-1.883 -4.864,-3.432 -2.502,-2.524 -5.398,-5.446 -11.722,-5.446 z"
     fill="#38bdf8"
     id="path2" />
</svg>
