<?xml version="1.0" encoding="UTF-8" standalone="no"?>
<!-- Created with Inkscape (http://www.inkscape.org/) -->

<svg
   version="1.1"
   width="124.89882"
   height="124.89882"
   id="svg2948"
   sodipodi:docname="django.svg"
   inkscape:version="1.1.2 (0a00cf5339, 2022-02-04)"
   xmlns:inkscape="http://www.inkscape.org/namespaces/inkscape"
   xmlns:sodipodi="http://sodipodi.sourceforge.net/DTD/sodipodi-0.dtd"
   xmlns="http://www.w3.org/2000/svg"
   xmlns:svg="http://www.w3.org/2000/svg">
  <sodipodi:namedview
     id="namedview12"
     pagecolor="#ffffff"
     bordercolor="#666666"
     borderopacity="1.0"
     inkscape:pageshadow="2"
     inkscape:pageopacity="0.0"
     inkscape:pagecheckerboard="0"
     showgrid="false"
     fit-margin-top="0"
     fit-margin-left="0"
     fit-margin-right="0"
     fit-margin-bottom="0"
     inkscape:zoom="1.8786044"
     inkscape:cx="34.866308"
     inkscape:cy="77.717267"
     inkscape:window-width="1366"
     inkscape:window-height="731"
     inkscape:window-x="0"
     inkscape:window-y="0"
     inkscape:window-maximized="1"
     inkscape:current-layer="layer1" />
  <defs
     id="defs2950" />
  <g
     id="g837"
     transform="translate(-67.55059,17.449404)">
    <g
       transform="translate(121.06306,-355.93976)"
       id="layer1">
      <rect
         style="fill:#0c3c26;fill-opacity:1;stroke-width:3.77953;stroke-linejoin:round;stroke-miterlimit:3.2"
         id="rect1154"
         width="124.89882"
         height="124.89882"
         x="-53.51247"
         y="338.49036" />
      <g
         id="g1364"
         style="fill:#ffffff;stroke-width:0.855373"
         transform="matrix(1.1690802,0,0,1.1690802,104.00293,-60.315034)">
        <g
           id="g1260"
           style="fill:#ffffff;stroke-width:0.855373">
          <path
             d="m -101.47577,400.00486 c -0.0431,8.1975 5.967822,13.08438 15.560005,10.8625 v -21.725 c -9.713433,-2.95812 -15.519375,3.02656 -15.560005,10.8625 m 15.853442,-42.27625 h 13.21125 v 62.53344 c -12.663437,2.07031 -24.79187,3.38344 -33.468442,-1.46813 -11.17187,-6.24625 -12.07,-26.09562 -3.22968,-34.93625 4.48218,-4.48187 13.505622,-7.63718 23.193435,-5.57812 v -19.67 c -0.02531,-0.41688 -0.04875,-0.83188 0.293437,-0.88094"
             id="path2838"
             style="fill:#ffffff;fill-opacity:1;fill-rule:evenodd;stroke:none;stroke-width:0.855373" />
          <path
             d="m -50.979389,378.51405 c -0.015,9.72844 -0.0128,16.71906 -0.01375,28.53781 -0.56125,11.61469 -0.430625,20.86375 -4.683438,26.42125 -0.83875,1.09594 -2.62,2.69469 -4.110312,3.81688 -1.251564,0.94218 -3.636876,2.85281 -4.990939,2.93593 -1.365,0.0838 -4.871875,-1.895 -6.459062,-2.6425 -2.084063,-0.98156 -4.010625,-2.285 -6.165,-2.93562 5.025312,-3.11406 9.795625,-5.44875 11.743125,-11.74344 1.69375,-5.47437 1.468125,-13.40719 1.468125,-21.13812 0,-7.63375 0.03406,-16.50875 0.03406,-23.24875 l 13.177189,-0.003 z"
             id="path2860"
             style="fill:#ffffff;fill-opacity:1;fill-rule:evenodd;stroke:none;stroke-width:0.855373" />
        </g>
        <path
           d="M -50.979419,371.52699 H -64.19067 v -13.79844 h 13.211251 z"
           id="path2840"
           style="fill:#ffffff;fill-opacity:1;fill-rule:evenodd;stroke:none;stroke-width:0.855373" />
      </g>
    </g>
  </g>
</svg>
