<?xml version="1.0" encoding="UTF-8" standalone="no"?>
<svg
   width="49.99398"
   height="49.99398"
   version="1.1"
   id="svg2753"
   sodipodi:docname="jupyter.svg"
   inkscape:version="1.1.2 (0a00cf5339, 2022-02-04)"
   xmlns:inkscape="http://www.inkscape.org/namespaces/inkscape"
   xmlns:sodipodi="http://sodipodi.sourceforge.net/DTD/sodipodi-0.dtd"
   xmlns:xlink="http://www.w3.org/1999/xlink"
   xmlns="http://www.w3.org/2000/svg"
   xmlns:svg="http://www.w3.org/2000/svg">
  <sodipodi:namedview
     id="namedview2755"
     pagecolor="#ffffff"
     bordercolor="#666666"
     borderopacity="1.0"
     inkscape:pageshadow="2"
     inkscape:pageopacity="0.0"
     inkscape:pagecheckerboard="0"
     showgrid="false"
     fit-margin-top="0"
     fit-margin-left="0"
     fit-margin-right="0"
     fit-margin-bottom="0"
     inkscape:zoom="1.4926727"
     inkscape:cx="53.260168"
     inkscape:cy="34.83684"
     inkscape:window-width="1366"
     inkscape:window-height="731"
     inkscape:window-x="0"
     inkscape:window-y="0"
     inkscape:window-maximized="1"
     inkscape:current-layer="g2737" />
  <g
     transform="translate(-1638.3593,-2093.3104)"
     id="g2737">
    <g
       id="g2922"
       transform="translate(6.0376335,-4.1684237e-5)">
      <use
         xlink:href="#H"
         fill="#767677"
         x="1669.3"
         y="2093.3101"
         id="use2725"
         width="100%"
         height="100%" />
      <g
         fill="#f37726"
         id="g2731">
        <use
           xlink:href="#I"
           x="1639.74"
           y="2123.98"
           id="use2727"
           width="100%"
           height="100%" />
        <use
           xlink:href="#J"
           x="1639.73"
           y="2097.48"
           id="use2729"
           width="100%"
           height="100%" />
      </g>
      <use
         xlink:href="#K"
         fill="#989798"
         x="1639.8"
         y="2135.8101"
         id="use2733"
         width="100%"
         height="100%" />
      <use
         xlink:href="#L"
         fill="#6f7070"
         x="1638.36"
         y="2098.0601"
         id="use2735"
         width="100%"
         height="100%" />
    </g>
  </g>
  <defs
     id="defs2751">
    <path
       id="A"
       d="m 5.626,17.928 c 0,5.146 -0.393,6.826 -1.439,8.067 C 3.044,27.05 1.55,27.634 0,27.63 l 0.393,3.061 c 2.402,0.033 4.731,-0.835 6.533,-2.437 1.875,-1.953 2.529,-4.653 2.529,-8.797 V 0 H 5.617 v 17.954 z" />
    <path
       id="B"
       d="m 17.741,15.623 0.174,5.85 h -3.358 l -0.218,-3.519 h -0.087 a 7.96,7.96 0 0 1 -2.953,2.948 C 10.073,21.602 8.683,21.96 7.274,21.939 3.96,21.939 0,20.074 0,12.544 V 0 h 3.838 v 11.902 c 0,4.082 1.221,6.826 4.701,6.826 1.092,-0.02 2.153,-0.365 3.052,-0.991 0.899,-0.626 1.594,-1.505 1.999,-2.528 0.233,-0.639 0.351,-1.316 0.349,-1.997 V 0.018 h 3.838 v 15.605 h -0.035 z" />
    <path
       id="C"
       d="M 0.174,7.536 0,0.499 H 3.445 L 3.619,4.176 H 3.706 A 8.31,8.31 0 0 1 6.877,1.039 8.22,8.22 0 0 1 11.2,0.006 c 5.094,0 8.932,4.398 8.932,10.908 0,7.715 -4.614,11.524 -9.595,11.524 A 7.33,7.33 0 0 1 6.85,21.619 7.4,7.4 0 0 1 4.047,19.069 H 3.96 V 30.725 H 0.166 V 7.501 l 0.009,0.035 z m 3.794,5.718 a 8.87,8.87 0 0 0 0.174,1.592 5.98,5.98 0 0 0 2.091,3.285 5.89,5.89 0 0 0 3.657,1.281 c 4.056,0 6.402,-3.369 6.402,-8.286 0,-4.302 -2.224,-7.979 -6.271,-7.979 C 8.66,3.185 7.351,3.682 6.301,4.557 5.251,5.432 4.524,6.635 4.23,7.976 4.076,8.493 3.988,9.028 3.968,9.568 v 3.677 z" />
    <path
       id="D"
       d="m 4.161,0 4.614,12.676 1.352,4.398 h 0.087 l 1.352,-4.478 4.187,-12.587 h 4.056 L 14.06,15.306 C 11.313,22.66 9.446,26.434 6.83,28.739 5.508,29.979 3.887,30.85 2.129,31.264 L 1.17,27.983 C 2.4,27.57 3.54,26.922 4.528,26.074 5.924,24.898 7.029,23.41 7.755,21.728 A 2.83,2.83 0 0 0 8.06,20.796 C 8.026,20.444 7.937,20.1 7.798,19.775 L 0,0.009 h 4.187 z" />
    <path
       id="E"
       d="m 7.022,0 v 6.158 h 5.486 V 9.131 H 7.022 V 20.69 c 0,2.639 0.741,4.17 2.878,4.17 0.75,0.012 1.498,-0.077 2.224,-0.264 l 0.174,2.929 C 11.207,27.913 10.053,28.092 8.896,28.053 8.129,28.1 7.361,27.979 6.645,27.696 5.929,27.413 5.284,26.977 4.752,26.417 3.662,25.265 3.269,23.356 3.269,20.831 V 9.131 H 0 V 6.158 H 3.271 V 1.012 Z" />
    <path
       id="F"
       d="m 3.629,11.928 c 0.087,5.278 3.402,7.451 7.231,7.451 2.002,0.063 3.993,-0.315 5.835,-1.108 l 0.654,2.789 c -2.207,0.935 -4.585,1.387 -6.978,1.328 C 3.881,22.388 0,18.042 0,11.568 0,5.094 3.751,0 9.891,0 c 6.882,0 8.722,6.158 8.722,10.107 -0.006,0.609 -0.05,1.217 -0.131,1.821 H 3.655 Z M 14.872,9.14 C 14.916,6.659 13.869,2.798 9.56,2.798 5.679,2.798 3.986,6.431 3.681,9.14 H 14.88 14.871 Z" />
    <path
       id="G"
       d="M 0.174,7.179 0,0.484 H 3.358 L 3.489,4.698 H 3.663 C 4.623,1.813 6.934,0 9.499,0 c 0.368,-0.005 0.734,0.039 1.09,0.132 V 3.809 C 10.159,3.715 9.72,3.67 9.281,3.677 6.577,3.677 4.667,5.762 4.144,8.682 A 11.14,11.14 0 0 0 3.97,10.503 V 21.939 H 0.174 Z" />
    <path
       id="H"
       d="M 5.894,2.844 C 5.919,3.432 5.771,4.014 5.469,4.516 5.167,5.018 4.723,5.42 4.194,5.668 3.665,5.916 3.075,6.001 2.499,5.911 A 2.94,2.94 0 0 1 0.956,5.163 2.98,2.98 0 0 1 0.085,3.677 C -0.053,3.106 -0.02,2.506 0.18,1.953 A 2.97,2.97 0 0 1 1.208,0.574 2.93,2.93 0 0 1 2.823,0.003 C 3.604,-0.03 4.365,0.25 4.941,0.783 5.517,1.316 5.859,2.057 5.893,2.844 Z" />
    <path
       id="I"
       d="M 18.265,7.134 C 10.415,7.134 3.559,4.258 0,0 c 1.325,3.82 3.796,7.131 7.069,9.473 3.273,2.342 7.187,3.6 11.2,3.6 4.013,0 7.927,-1.258 11.2,-3.6 C 32.742,7.131 35.213,3.82 36.538,0 32.971,4.258 26.115,7.134 18.265,7.134 Z" />
    <path
       id="J"
       d="m 18.273,5.939 c 7.85,0 14.706,2.877 18.265,7.134 C 35.213,9.253 32.742,5.942 29.469,3.6 26.196,1.258 22.282,0 18.269,0 14.256,0 10.342,1.258 7.069,3.6 3.796,5.942 1.325,9.253 0,13.073 3.567,8.824 10.423,5.939 18.273,5.939 Z" />
    <path
       id="K"
       d="M 7.428,3.583 A 3.77,3.77 0 0 1 6.892,5.692 C 6.51,6.326 5.951,6.831 5.284,7.144 4.617,7.457 3.874,7.564 3.147,7.45 2.42,7.336 1.743,7.008 1.202,6.506 0.661,6.004 0.279,5.353 0.105,4.632 A 3.78,3.78 0 0 1 0.227,2.459 C 0.48,1.762 0.932,1.157 1.526,0.72 2.12,0.283 2.829,0.033 3.564,0.003 4.547,-0.038 5.505,0.317 6.23,0.988 a 3.76,3.76 0 0 1 1.198,2.596 v 0 z" />
    <path
       id="L"
       d="M 2.275,4.396 C 1.844,4.415 1.417,4.304 1.048,4.078 0.679,3.852 0.385,3.521 0.203,3.126 0.021,2.731 -0.041,2.291 0.025,1.861 0.091,1.431 0.282,1.03 0.574,0.71 0.866,0.39 1.246,0.164 1.665,0.061 2.084,-0.042 2.524,-0.017 2.93,0.133 3.336,0.283 3.687,0.55 3.941,0.902 A 2.21,2.21 0 0 1 3.785,3.686 C 3.394,4.115 2.851,4.37 2.274,4.395 v 0 z" />
  </defs>
</svg>
