<?xml version="1.0" encoding="UTF-8" standalone="no"?>
<svg
   width="116.34106"
   height="116.34094"
   viewBox="0 0 116.34106 116.34094"
   version="1.1"
   id="svg15"
   sodipodi:docname="next.svg"
   inkscape:version="1.1.2 (0a00cf5339, 2022-02-04)"
   xmlns:inkscape="http://www.inkscape.org/namespaces/inkscape"
   xmlns:sodipodi="http://sodipodi.sourceforge.net/DTD/sodipodi-0.dtd"
   xmlns="http://www.w3.org/2000/svg"
   xmlns:svg="http://www.w3.org/2000/svg"
   xmlns:rdf="http://www.w3.org/1999/02/22-rdf-syntax-ns#"
   xmlns:cc="http://creativecommons.org/ns#"
   xmlns:dc="http://purl.org/dc/elements/1.1/">
  <sodipodi:namedview
     id="namedview17"
     pagecolor="#ffffff"
     bordercolor="#666666"
     borderopacity="1.0"
     inkscape:pageshadow="2"
     inkscape:pageopacity="0.0"
     inkscape:pagecheckerboard="0"
     showgrid="false"
     fit-margin-top="0"
     fit-margin-left="0"
     fit-margin-right="0"
     fit-margin-bottom="0"
     inkscape:zoom="2.9163829"
     inkscape:cx="67.377984"
     inkscape:cy="60.005838"
     inkscape:window-width="1366"
     inkscape:window-height="731"
     inkscape:window-x="0"
     inkscape:window-y="0"
     inkscape:window-maximized="1"
     inkscape:current-layer="Black-Next.js" />
  <!-- Generator: Sketch 51.2 (57519) - http://www.bohemiancoding.com/sketch -->
  <title
     id="title2">next-black</title>
  <desc
     id="desc4">Created with Sketch.</desc>
  <defs
     id="defs6" />
  <g
     id="Page-1"
     stroke="none"
     stroke-width="1"
     fill="none"
     fill-rule="evenodd"
     transform="translate(30.897579,-5.1147461)">
    <g
       id="Black-Next.js"
       transform="translate(-247,-138)"
       fill="#000000"
       fill-rule="nonzero">
      <ellipse
         style="fill:#000000;stroke-width:1.49546"
         id="path1425"
         cx="274.27295"
         cy="201.28522"
         rx="58.170528"
         ry="58.170471" />
      <g
         id="next-black"
         transform="translate(247,138)">
        <path
           d="M 48.9422,32.632004 H 87.901158 V 35.71364 H 52.513439 v 23.193368 h 33.277449 v 3.081637 H 52.513439 v 25.464047 h 35.793549 v 3.081636 H 48.9422 Z m 42.449038,0 h 4.13939 l 18.343182,25.464047 18.749,-25.464047 25.5017,-32.34519632 -41.89693,60.48540132 21.58976,29.762119 h -4.30172 L 113.87381,63.448367 94.150828,90.534328 h -4.22055 L 111.68237,60.772209 Z m 47.968222,3.081636 v -3.081636 h 44.39699 v 3.081636 h -20.45346 v 54.820688 h -3.57124 V 35.71364 Z"
           id="EXT"
           style="fill:none" />
        <path
           d="m 183.39662,86.522722 c 0.73832,0 1.27685,-0.562614 1.27685,-1.289685 0,-0.727071 -0.53853,-1.289686 -1.27685,-1.289686 -0.72963,0 -1.27685,0.562615 -1.27685,1.289686 0,0.727071 0.54722,1.289685 1.27685,1.289685 z m 3.50917,-3.392999 c 0,2.146592 1.55481,3.5488 3.82187,3.5488 2.41473,0 3.87399,-1.445486 3.87399,-3.955613 v -8.837377 h -1.94568 v 8.828721 c 0,1.393553 -0.70357,2.137936 -1.94568,2.137936 -1.11182,0 -1.86751,-0.692449 -1.89356,-1.722467 z m 10.24087,-0.112522 c 0.13898,2.233147 2.00648,3.661322 4.78603,3.661322 2.97063,0 4.82945,-1.49742 4.82945,-3.886368 0,-1.878267 -1.0597,-2.91694 -3.63078,-3.514177 l -1.38108,-0.337569 c -1.63298,-0.380847 -2.29312,-0.891528 -2.29312,-1.783055 0,-1.12523 1.02495,-1.860956 2.56239,-1.860956 1.45926,0 2.46684,0.718416 2.64925,1.869611 h 1.89356 c -0.11292,-2.103313 -1.97174,-3.583422 -4.51676,-3.583422 -2.73611,0 -4.56018,1.480109 -4.56018,3.704601 0,1.834989 1.03364,2.925595 3.30071,3.453588 l 1.6156,0.389502 c 1.65904,0.389503 2.38867,0.960773 2.38867,1.91289 0,1.107918 -1.14656,1.912889 -2.71005,1.912889 -1.67641,0 -2.84034,-0.753037 -3.00538,-1.938856 z"
           id=".JS" />
      </g>
      <g
         id="g1357"
         style="fill:#ffffff">
        <polygon
           id="Type-something"
           points="0.20292365,32.632006 4.6669714,32.632006 66.223578,124.30309 40.785176,90.53433 3.9364909,37.011173 3.7741619,90.53433 0.20292365,90.53433 "
           transform="translate(247,138)"
           style="fill:#ffffff" />
        <path
           id="rect939"
           style="fill:#ffffff;stroke-width:1.40441"
           d="m 295.9422,170.632 h 3.57124 v 57.90234 l -3.57124,-6.16133 z"
           sodipodi:nodetypes="ccccc" />
      </g>
    </g>
  </g>
  <metadata
     id="metadata937">
    <rdf:RDF>
      <cc:Work
         rdf:about="">
        <dc:title>next-black</dc:title>
      </cc:Work>
    </rdf:RDF>
  </metadata>
</svg>
