<?xml version="1.0" encoding="UTF-8" standalone="no"?>
<svg
   aria-label="Amazon Simple Storage Service"
   role="img"
   viewBox="0 0 384 384"
   version="1.1"
   id="svg17"
   sodipodi:docname="s3.svg"
   width="384"
   height="384"
   inkscape:version="1.1.2 (0a00cf5339, 2022-02-04)"
   xmlns:inkscape="http://www.inkscape.org/namespaces/inkscape"
   xmlns:sodipodi="http://sodipodi.sourceforge.net/DTD/sodipodi-0.dtd"
   xmlns:xlink="http://www.w3.org/1999/xlink"
   xmlns="http://www.w3.org/2000/svg"
   xmlns:svg="http://www.w3.org/2000/svg">
  <defs
     id="defs21" />
  <sodipodi:namedview
     id="namedview19"
     pagecolor="#ffffff"
     bordercolor="#666666"
     borderopacity="1.0"
     inkscape:pageshadow="2"
     inkscape:pageopacity="0.0"
     inkscape:pagecheckerboard="0"
     showgrid="false"
     fit-margin-top="0"
     fit-margin-left="0"
     fit-margin-right="0"
     fit-margin-bottom="0"
     inkscape:zoom="0.85254273"
     inkscape:cx="150.72558"
     inkscape:cy="119.6421"
     inkscape:window-width="1366"
     inkscape:window-height="731"
     inkscape:window-x="0"
     inkscape:window-y="0"
     inkscape:window-maximized="1"
     inkscape:current-layer="g932" />
  <g
     id="g932"
     transform="translate(-64,-64)">
    <path
       fill="#e05243"
       d="M 260,348 123,381 97,369 V 144 l 26,-13 137,32 z"
       id="path4"
       sodipodi:nodetypes="ccccccc" />
    <path
       fill="#8c3123"
       d="m 256,349 133,32 26,-13 -26,-237 -133,32 v 186"
       id="path6"
       sodipodi:nodetypes="cccccc" />
    <g
       fill="#e05243"
       id="g9">
      <path
         id="a"
         d="m 256,64 v 97 l 58,14 V 93 Z m 133,67 v 250 l 26,-13 V 143 Z m -133,77 v 97 l 58,-8 v -82 z m 58,129 -58,14 v 97 l 58,-29 z" />
    </g>
    <use
       fill="#8c3123"
       transform="rotate(180,256,256)"
       xlink:href="#a"
       id="use11"
       x="0"
       y="0"
       width="100%"
       height="100%" />
    <path
       fill="#5e1f18"
       d="m 314,175 -58,11 -58,-11 58,-15 58,15"
       id="path13" />
    <path
       fill="#f2b0a9"
       d="m 314,337 -58,-11 -58,11 58,16 58,-16"
       id="path15"
       style="fill:#5e1f18;fill-opacity:1" />
  </g>
</svg>
