<?xml version="1.0" encoding="UTF-8" standalone="no"?>
<!-- Generator: Adobe Illustrator 24.1.0, SVG Export Plug-In . SVG Version: 6.00 Build 0)  -->

<svg
   version="1.1"
   id="Layer_1"
   x="0px"
   y="0px"
   viewBox="0 0 97.178673 97.178674"
   xml:space="preserve"
   sodipodi:docname="spring.svg"
   inkscape:version="1.1.2 (0a00cf5339, 2022-02-04)"
   width="97.178673"
   height="97.178673"
   xmlns:inkscape="http://www.inkscape.org/namespaces/inkscape"
   xmlns:sodipodi="http://sodipodi.sourceforge.net/DTD/sodipodi-0.dtd"
   xmlns="http://www.w3.org/2000/svg"
   xmlns:svg="http://www.w3.org/2000/svg"><defs
   id="defs31" /><sodipodi:namedview
   id="namedview29"
   pagecolor="#ffffff"
   bordercolor="#666666"
   borderopacity="1.0"
   inkscape:pageshadow="2"
   inkscape:pageopacity="0.0"
   inkscape:pagecheckerboard="0"
   showgrid="false"
   inkscape:zoom="1.3893869"
   inkscape:cx="128.47394"
   inkscape:cy="77.012387"
   inkscape:window-width="1366"
   inkscape:window-height="731"
   inkscape:window-x="0"
   inkscape:window-y="0"
   inkscape:window-maximized="1"
   inkscape:current-layer="Layer_1"
   fit-margin-top="0"
   fit-margin-left="0"
   fit-margin-right="0"
   fit-margin-bottom="0"
   height="94.995232px"
   width="97.17867px" />
<style
   type="text/css"
   id="style2">
	.st0{fill:#6DB33F;}
	.st1{fill:#FFFFFF;}
</style>











<g
   id="g1373"
   transform="translate(0,0.09171973)"><path
     class="st0"
     d="m 88.483035,5.7196483 c -1.3,3.2 -3.1,6.2999997 -5.2,9.0999997 -18.6,-19.2999997 -49.3,-19.7999997 -68.5,-1.2 -19.2000003,18.6 -19.8000003,49.3 -1.2,68.5 0.6,0.7 1.3,1.3 2,1.9 l 1.8,1.6 c 20.4,17.200002 51,14.600002 68.2,-5.8 6.6,-7.8 10.6,-17.6 11.3,-27.8 1.4,-12.1 -2.3,-27.7 -8.4,-46.2999997 z m -65.9,78.7999997 c -1.4,1.8 -4,2 -5.8,0.6 -1.8,-1.4 -2,-4 -0.6,-5.8 1.4,-1.8 4,-2 5.8,-0.6 1.7,1.4 2,4 0.6,5.8 z m 65.6,-14.5 c -11.9,15.9 -37.5,10.5 -53.8,11.3 0,0 -2.9,0.2 -5.8,0.6 0,0 1.1,-0.5 2.5,-1 11.5,-4 16.9,-4.8 23.9,-8.4 13.1,-6.7 26.2,-21.4 28.8,-36.6 -5,14.6 -20.2,27.2 -34,32.3 -9.5,3.5 -26.6,6.9 -26.6,6.9 l -0.7,-0.4 c -11.6,-5.7 -12,-30.9 9.2,-39 9.3,-3.6 18.1,-1.6 28.2,-4 10.7,-2.5 23.1,-10.5 28.1,-21 5.6,16.9 12.399995,43.1 0.2,59.3 z"
     id="path4" /><path
     class="st0"
     d="m 85.583035,79.819648 c 6.6,-7.8 10.6,-17.6 11.3,-27.8"
     id="path22" /><path
     class="st1"
     d="m 88.183035,70.019648 c -11.9,15.9 -37.5,10.5 -53.8,11.3 0,0 -2.9,0.2 -5.8,0.6 0,0 1.1,-0.5 2.5,-1 11.5,-4 16.9,-4.8 23.9,-8.4 13.1,-6.7 26.2,-21.4 28.8,-36.6 -5,14.6 -20.2,27.2 -34,32.3 -9.5,3.5 -26.6,6.9 -26.6,6.9 l -0.7,-0.4 c -11.6,-5.7 -12,-30.9 9.2,-39 9.3,-3.6 18.1,-1.6 28.2,-4 10.7,-2.5 23.1,-10.5 28.1,-21 5.6,16.9 12.399995,43.1 0.2,59.3 z"
     id="path24" /><path
     class="st1"
     d="m 22.583035,84.519648 c -1.4,1.8 -4,2 -5.8,0.6 -1.8,-1.4 -2,-4 -0.6,-5.8 1.4,-1.8 4,-2 5.8,-0.6 1.7,1.4 2,4 0.6,5.8 z"
     id="path26" /></g>
</svg>
